inDegrees=yes
name=ik_S57_A04_T01
DataType=double
version=3
OpenSimVersion=4.3-2021-08-27-4bc7ad9
endheader
time	pelvis_tilt	pelvis_list	pelvis_rotation	pelvis_tx	pelvis_ty	pelvis_tz	hip_flexion_r	hip_adduction_r	hip_rotation_r	knee_angle_r	knee_angle_r_beta	ankle_angle_r	subtalar_angle_r	mtp_angle_r	hip_flexion_l	hip_adduction_l	hip_rotation_l	knee_angle_l	knee_angle_l_beta	ankle_angle_l	subtalar_angle_l	mtp_angle_l	lumbar_extension	lumbar_bending	lumbar_rotation	arm_flex_r	arm_add_r	arm_rot_r	elbow_flex_r	pro_sup_r	wrist_flex_r	wrist_dev_r	arm_flex_l	arm_add_l	arm_rot_l	elbow_flex_l	pro_sup_l	wrist_flex_l	wrist_dev_l
6.099999999999958	-4.445099643279434	-1.08494988671088	24.78081517211527	0	0.9399999999999999	0	62.60716009486604	0.1267475867107584	2.426565688661036	68.7902398995563	1.200616179484031	0	0	0	58.69945809247621	-11.25626329244439	9.859446971604877	71.58181965797492	1.249338437600463	0	0	0	0	0	0	24.9336452398821	-24.93364523988212	3.808401261313024	69.61288300275389	86.19159895495248	0	0	24.9336452398821	-24.93364523988212	3.808401261313024	69.61288300275389	86.19159895472897	0	0
6.119999999999957	-4.35275218147174	-1.03251059984125	24.82334754790283	0	0.9399999999999999	0	62.50208060350425	0.08777707747035073	2.4193504304263	68.76711725626909	1.200212613226905	0	0	0	58.62251994419065	-11.16901982682504	9.823790122915643	71.54400416676314	1.248678432770559	0	0	0	0	0	0	24.97507431718514	-24.97507431718516	3.813223782381543	69.67674894428055	86.18677643414215	0	0	24.97507431718514	-24.97507431718516	3.813223782381543	69.67674894428055	86.18677643391953	0	0
6.139999999999957	-4.2717146012562	-1.022710968158947	24.83831215792242	0	0.9399999999999999	0	62.43582706060578	0.06756870784940013	2.381387717879859	68.82440533183092	1.20121247876759	0	0	0	58.56834253510088	-11.14695841297299	9.832529085344447	71.60988570348515	1.249828282502632	0	0	0	0	0	0	25.01314594714649	-25.01314594714651	3.817655456314824	69.73543691845481	86.18234476044611	0	0	25.01314594714649	-25.01314594714651	3.817655456314824	69.73543691845481	86.1823447602244	0	0
6.159999999999957	-4.187105753049932	-0.9808548661028055	24.8514839775543	0	0.9399999999999999	0	62.34792147443199	0.05613722383756777	2.457619921896241	68.8015647298165	1.200813835059301	0	0	0	58.48162987543311	-11.10631257279945	9.855633235735262	71.56579315130111	1.249058722291413	0	0	0	0	0	0	25.05745326077978	-25.05745326077981	3.822806925083536	69.8036432247101	86.1771932919531	0	0	25.05745326077978	-25.05745326077981	3.822806925083536	69.8036432247101	86.17719329173238	0	0
6.179999999999956	-4.118961254129365	-0.9362098426921939	24.83407623470419	0	0.9399999999999999	0	62.27840451507614	0.08310852177314426	2.510192409583222	68.79757122903878	1.200744135322049	0	0	0	58.39490791745061	-11.11412746357813	9.837460239667067	71.5413944052477	1.248632883839423	0	0	0	0	0	0	25.09768626764855	-25.09768626764857	3.827472333202524	69.86538700521082	86.17252788408368	0	0	25.09768626764855	-25.09768626764857	3.827472333202524	69.86538700521082	86.17252788386384	0	0
6.199999999999956	-4.101409256953671	-0.938665928264226	24.83213870873055	0	0.9399999999999999	0	62.26263090961525	0.1287987336329841	2.591790208854997	68.8665081594293	1.201947311733581	0	0	0	58.40097688571743	-11.04848688901186	9.770771475586054	71.54412255675366	1.248680499065695	0	0	0	0	0	0	25.09911173164907	-25.09911173164909	3.827636875391292	69.86756441270049	86.17236334190372	0	0	25.09911173164907	-25.09911173164909	3.827636875391292	69.86756441270049	86.17236334168388	0	0
6.219999999999955	-4.1522186182238	-0.988734244146943	24.83931355613509	0	0.9399999999999999	0	62.34787671850133	0.1367405854903748	2.649284558925867	68.93289431409374	1.203105968710214	0	0	0	58.44946483319578	-11.02517687250236	9.787774282891739	71.50429046618279	1.247985297937281	0	0	0	0	0	0	25.13798840710624	-25.13798840710626	3.832136747047791	69.92709681451308	86.16786347048789	0	0	25.13798840710624	-25.13798840710626	3.832136747047791	69.92709681451308	86.16786347026888	0	0
6.239999999999955	-4.152564940443754	-0.990038906908941	24.83133633014205	0	0.9399999999999999	0	62.34823673501859	0.1492556783648752	2.691937300038263	68.96085923591342	1.20359404867103	0	0	0	58.47071538186698	-10.96279625790528	9.777673710234795	71.47174086029166	1.247417200144254	0	0	0	0	0	0	25.19098950199804	-25.19098950199806	3.8382477421292	70.00789439291204	86.16175247573302	0	0	25.19098950199804	-25.19098950199806	3.8382477421292	70.00789439291204	86.16175247551519	0	0
6.259999999999954	-4.215383922226777	-1.037610925809076	24.85152068254128	0	0.9399999999999999	0	62.42482704012164	0.1201174363743514	2.66370728762006	68.98063664044446	1.203939229497596	0	0	0	58.55813283562791	-10.89793005000569	9.79755620805159	71.46168065530111	1.247241616443743	0	0	0	0	0	0	25.23389195382395	-25.23389195382397	3.843177571474806	70.07303973104308	86.15682264665062	0	0	25.23389195382395	-25.23389195382397	3.843177571474806	70.07303973104308	86.15682264643375	0	0
6.279999999999954	-4.266451557301344	-1.067210297673986	24.82263877332993	0	0.9399999999999999	0	62.47852433466641	0.1341253020205891	2.646006730492307	69.01771377258116	1.204586347530578	0	0	0	58.75837710173833	-10.90650258821567	9.778186449347142	71.5766955759161	1.249249005497395	0	0	0	0	0	0	25.26327703296546	-25.26327703296548	3.846562054039711	70.11778124384723	86.15343816426649	0	0	25.26327703296546	-25.26327703296548	3.846562054039711	70.11778124384723	86.15343816405034	0	0
6.299999999999954	-4.315588003615551	-1.097745072417779	24.78666376892317	0	0.9399999999999999	0	62.52619044059055	0.1520512034109728	2.539479804712971	69.01304832073575	1.204504920034782	0	0	0	58.96886354303086	-10.91460918612093	9.829789187176736	71.78425014330296	1.252871516075848	0	0	0	0	0	0	25.26667508932621	-25.26667508932623	3.846953419257498	70.12295591978659	86.15304679906963	0	0	25.26667508932621	-25.26667508932623	3.846953419257498	70.12295591978659	86.1530467988535	0	0
6.319999999999953	-4.459782941006069	-1.169443722785087	24.74593797535363	0	0.9399999999999999	0	62.66952766076632	0.1731810323134961	2.463747220897339	69.00413551936991	1.204349362305372	0	0	0	59.2046486294828	-10.8788558606695	9.837038265190793	71.81532209682983	1.253413823969919	0	0	0	0	0	0	25.26830303158246	-25.26830303158248	3.847140070748119	70.12542297948318	86.15286014758898	0	0	25.26830303158246	-25.26830303158248	3.847140070748119	70.12542297948318	86.15286014737289	0	0
6.339999999999953	-4.666427807511914	-1.276953904589798	24.67195227380508	0	0.9399999999999999	0	62.89294020182857	0.2107583808653842	2.423862383392269	68.99061662473216	1.204113413082713	0	0	0	59.50886652852805	-10.90221301230375	9.887333924925297	71.8726609894771	1.254414576436061	0	0	0	0	0	0	25.27012295513815	-25.27012295513817	3.847348571727746	70.12817865087912	86.15265164662046	0	0	25.27012295513815	-25.27012295513817	3.847348571727746	70.12817865087912	86.15265164640446	0	0
6.359999999999952	-4.665163469440301	-1.281477255592799	24.68756773480665	0	0.9399999999999999	0	62.89960393966783	0.1671789859470495	2.391910301128244	68.99851781786718	1.204251314917755	0	0	0	59.66334170608879	-10.77420474343762	9.981894057023121	72.05866605995294	1.257660977341268	0	0	0	0	0	0	25.27300027320386	-25.27300027320388	3.847680123523172	70.13256250626338	86.15232009484271	0	0	25.27300027320386	-25.27300027320388	3.847680123523172	70.13256250626338	86.1523200946268	0	0
6.379999999999952	-5.025916197735581	-1.465216480744218	24.51199042793634	0	0.9399999999999999	0	63.2875352721633	0.3250947879815141	2.448886250703692	68.967631598675	1.203712248699359	0	0	0	60.04177474575342	-10.9131839836335	9.898987248312139	72.05673701661121	1.257627309183541	0	0	0	0	0	0	25.27428791168903	-25.27428791168904	3.847825022827057	70.13447496184061	86.15217519554655	0	8.181115268231769e-49	25.27428791168903	-25.27428791168904	3.847825022827057	70.13447496184061	86.15217519533068	0	8.181115268231769e-49
6.399999999999952	-5.177660766938391	-1.561489247666683	24.50015753867143	0	0.9399999999999999	0	63.4576007226477	0.3205397003073718	2.390837667586971	68.99032902376754	1.204108393498949	0	0	0	60.31833335051171	-10.89206485345868	10.19577468050151	72.21944571198556	1.260467111639448	0	0	0	0	0	0	25.27662801470844	-25.27662801470846	3.848094129705132	70.13803257018415	86.15190608868285	0	0	25.27662801470844	-25.27662801470846	3.848094129705132	70.13803257018415	86.15190608846703	0	0
